<svg width="23" height="14" viewBox="0 0 23 14" fill="none" xmlns="http://www.w3.org/2000/svg">
<g opacity="0.6">
<path d="M10.7061 12.6934C10.7606 12.74 10.8189 12.7867 10.8753 12.8334C9.765 13.5722 8.4331 14.0039 7 14.0039C3.13444 14.0039 0 10.8695 0 7.0039C0 3.13835 3.13444 0.00390625 7 0.00390625C8.4331 0.00390625 9.765 0.435566 10.8753 1.17446C10.8189 1.22113 10.7606 1.26585 10.7061 1.31446C9.0572 2.74946 8.1103 4.82224 8.1103 7.0039C8.1103 9.1856 9.0572 11.2584 10.7061 12.6934ZM15.6528 0.00390625C14.2197 0.00390625 12.8878 0.435566 11.7775 1.17446C11.8339 1.22113 11.8922 1.26585 11.9467 1.31446C13.5956 2.74946 14.5406 4.82224 14.5406 7.0039C14.5406 9.1856 13.5956 11.2584 11.9467 12.6934C11.8922 12.74 11.8339 12.7867 11.7775 12.8334C12.8878 13.5722 14.2197 14.0039 15.6528 14.0039C19.5183 14.0039 22.6528 10.8695 22.6528 7.0039C22.6528 3.13835 19.5183 0.00390625 15.6528 0.00390625ZM11.3264 1.50307C11.2369 1.57502 11.1475 1.64696 11.0619 1.7228C9.5861 3.00613 8.6528 4.89613 8.6528 7.0039C8.6528 9.1117 9.5861 11.0017 11.0619 12.285C11.1475 12.3609 11.2369 12.4328 11.3264 12.5047C11.4158 12.4328 11.5053 12.3609 11.5908 12.285C13.0667 11.0017 14 9.1117 14 7.0039C14 4.89613 13.0667 3.00613 11.5908 1.7228C11.5053 1.64696 11.4158 1.57502 11.3264 1.50307Z" fill="white"/>
</g>
</svg>
