<svg width="32" height="10" viewBox="0 0 32 10" fill="none" xmlns="http://www.w3.org/2000/svg">
<g opacity="0.6">
<path fill-rule="evenodd" clip-rule="evenodd" d="M2.89626 0.0109363C1.93014 0.0123363 0.965277 0.0137462 0.000410363 0.0102262C-0.000214377 3.3414 -0.000214377 6.6718 0.0010351 10.0029C0.382655 10.0006 0.764166 10.0013 1.14566 10.002C1.67973 10.003 2.21377 10.004 2.74802 9.9966C2.74547 8.8458 2.74589 7.695 2.74632 6.5442C2.74662 5.7222 2.74692 4.9002 2.74614 4.0782C2.83735 3.984 3.00603 3.9896 3.02915 4.1506C3.40377 5.4771 3.77406 6.8049 4.14433 8.1327C4.31806 8.7557 4.49179 9.3787 4.66597 10.0015C4.89173 10.0005 5.11756 10.0015 5.34342 10.0025C5.7657 10.0044 6.18806 10.0062 6.61016 9.9952C7.02172 8.5008 7.44024 7.0085 7.8587 5.5163C7.98716 5.0583 8.11561 4.6002 8.24385 4.1422C8.26135 3.9783 8.51687 3.9636 8.52249 4.1372C8.52691 5.5202 8.52601 6.9032 8.52511 8.2861C8.52473 8.8556 8.52436 9.425 8.52436 9.9945C9.07699 10.0051 9.62961 10.0037 10.1822 10.0023C10.5467 10.0013 10.9112 10.0004 11.2757 10.0029C11.2801 8.2057 11.2796 6.4084 11.279 4.6111C11.2786 3.0801 11.2781 1.54901 11.2807 0.0179663C10.7665 0.00943627 10.252 0.0104761 9.73772 0.0115161C9.40416 0.0121961 9.07068 0.0128663 8.7374 0.0109363C8.67809 0.0121363 8.61845 0.0113663 8.55873 0.0105863C8.37435 0.00819626 8.1892 0.00579634 8.01083 0.0615563C7.73344 0.145216 7.47792 0.324506 7.2955 0.575496C7.041 0.922326 6.93023 1.36046 6.82239 1.78696C6.80978 1.83683 6.79722 1.88655 6.78446 1.93594C6.63223 2.5105 6.48184 3.0855 6.33147 3.6604C6.13131 4.4256 5.93118 5.1907 5.72678 5.9547C5.69616 6.0826 5.53811 6.0362 5.53248 5.9167C5.34855 5.2212 5.16634 4.5253 4.98414 3.8294C4.81915 3.1993 4.65417 2.56923 4.48792 1.93945C4.46939 1.87027 4.45157 1.80052 4.4337 1.73061C4.34191 1.37139 4.2491 1.00822 4.0556 0.699236C3.80695 0.268256 3.35214 0.00460626 2.89733 0.0109363H2.89626ZM13.8143 0.0120564C13.3871 0.0106964 12.9598 0.00933626 12.5327 0.0165563C12.5346 2.60507 12.5339 5.1936 12.5332 7.7821C12.533 8.5219 12.5328 9.2617 12.5327 10.0015C13.1051 10.0028 13.6776 10.0025 14.25 10.0023C14.6315 10.0021 15.0131 10.0019 15.3946 10.0022C15.6439 10.0149 15.8582 9.8265 16.005 9.6162C16.2402 9.2801 16.3988 8.8886 16.5558 8.5011C16.5748 8.4542 16.5938 8.4073 16.6129 8.3606C16.8575 7.7525 17.1018 7.1441 17.3462 6.5357C17.6748 5.7176 18.0035 4.8994 18.3328 4.0817C18.359 3.9298 18.6133 3.9158 18.6158 4.0852C18.6195 5.3991 18.6188 6.7133 18.6181 8.0274C18.6178 8.6843 18.6175 9.3412 18.6177 9.998C19.5342 10.005 20.45 10.0057 21.3659 9.9973C21.3671 6.6704 21.3671 3.3435 21.3659 0.0165563C20.7254 0.00980626 20.0853 0.010996 19.4452 0.012176C19.1518 0.012716 18.8585 0.0132663 18.5652 0.0130463C18.3615 0.00249626 18.186 0.148036 18.0454 0.297786C17.7938 0.586596 17.6431 0.954756 17.4939 1.31923C17.4568 1.40992 17.4198 1.50037 17.3813 1.58932C17.1199 2.20669 16.8589 2.82419 16.598 3.4417C16.2509 4.2629 15.9039 5.084 15.5558 5.9048C15.5077 6.0355 15.3634 6.0109 15.2853 5.9322C15.2836 5.1698 15.2844 4.4075 15.2853 3.6452C15.2866 2.43129 15.2879 1.21747 15.2791 0.00390625C14.7909 0.0151563 14.3026 0.0136064 13.8143 0.0120564ZM27.6598 4.5679C26.0082 4.566 24.3565 4.5641 22.7053 4.5767C22.7103 5.6097 22.7096 6.6427 22.7089 7.6755C22.7084 8.45 22.7078 9.2244 22.7097 9.9987C23.2141 10.003 23.7186 10.0025 24.2229 10.0021C24.6355 10.0018 25.048 10.0014 25.4604 10.0036C25.4615 9.5654 25.461 9.1271 25.4606 8.6888C25.4599 8.0626 25.4593 7.4365 25.4629 6.8103C25.9436 6.8084 26.4242 6.8088 26.9046 6.8092C27.4752 6.8097 28.0456 6.8102 28.616 6.8068C29.4069 6.7836 30.176 6.3842 30.7114 5.7304C30.9831 5.3957 31.2393 5.0119 31.3361 4.5661C30.1108 4.5706 28.8853 4.5692 27.6598 4.5679ZM28.8051 0.0128961C26.656 0.0107861 24.5063 0.0128961 22.3572 0.0157061C22.4771 0.964146 22.8495 1.88236 23.4536 2.56293C24.1702 3.3947 25.1673 3.8685 26.1787 4.0127C26.5228 4.0703 26.8702 4.0685 27.2169 4.0667C27.3229 4.0662 27.4287 4.0656 27.5344 4.0668C28.0327 4.066 28.531 4.0666 29.0293 4.0672C29.848 4.0682 30.6666 4.0692 31.4853 4.064C31.529 3.7342 31.5353 3.3989 31.5184 3.0663C31.4459 2.14249 31.0086 1.26999 30.3601 0.701906C29.9134 0.315916 29.3687 0.0578961 28.8051 0.0128961Z" fill="white"/>
</g>
</svg>
