<svg width="31" height="10" viewBox="0 0 31 10" fill="none" xmlns="http://www.w3.org/2000/svg">
<g opacity="0.6">
<path d="M11.809 0.154656L7.73869 9.8532H5.07538L3.06533 2.11446C2.96482 1.6622 2.81407 1.46119 2.46231 1.26019C1.8593 0.958676 0.85427 0.606916 0 0.456166L0.0502501 0.154656H4.32161C4.87437 0.154656 5.37689 0.506416 5.47739 1.15969L6.53266 6.7878L9.1457 0.204906H11.809V0.154656ZM22.2111 6.6873C22.2111 4.1245 18.6935 3.9738 18.6935 2.86823C18.6935 2.51647 19.0452 2.16471 19.7487 2.06421C20.1005 2.01396 21.1055 1.96371 22.2111 2.51647L22.6633 0.456166C22.0603 0.255156 21.3065 0.00390625 20.3015 0.00390625C17.8392 0.00390625 16.0804 1.31044 16.0804 3.22C16.0804 4.627 17.3367 5.3808 18.2915 5.8331C19.2462 6.2853 19.598 6.5868 19.598 7.0391C19.598 7.6923 18.8442 7.9939 18.0905 7.9939C16.8342 7.9939 16.0804 7.6421 15.5276 7.3908L15.0754 9.5014C15.6784 9.7527 16.7337 10.0039 17.8392 10.0039C20.4523 10.0039 22.1608 8.6974 22.2111 6.6873ZM28.7437 9.8532H31.0553L29.0452 0.154656H26.8844C26.3819 0.154656 25.9799 0.456166 25.8291 0.858176L22.0603 9.8532H24.6734L25.1759 8.3959H28.392L28.7437 9.8532ZM25.9296 6.4361L27.2362 2.81798L27.99 6.4361H25.9296ZM15.3769 0.154656L13.3166 9.8532H10.804L12.8643 0.154656H15.3769Z" fill="white"/>
</g>
</svg>
