<svg id="catalog" viewBox="0 0 24 25" xmlns="http://www.w3.org/2000/svg">
	<path fill-rule="evenodd" clip-rule="evenodd" d="M2.0206 2.40059C2.58777 1.89665 3.37645 1.75 4.23 1.75H8.27C9.12355 1.75 9.91223 1.89665 10.4794 2.40059C11.0692 2.92461 11.25 3.67847 11.25 4.48V9.02C11.25 9.82097 11.0694 10.576 10.4783 11.0991C9.91006 11.602 9.12079 11.7451 8.26778 11.74H4.23C3.37912 11.74 2.58971 11.5968 2.02169 11.0941C1.43009 10.5706 1.25 9.81497 1.25 9.01V4.48C1.25 3.67847 1.43081 2.92461 2.0206 2.40059ZM3.0169 3.52191C2.88919 3.63539 2.75 3.87153 2.75 4.48V9.01C2.75 9.62503 2.88991 9.85945 3.01581 9.97087C3.16529 10.1032 3.49088 10.24 4.23 10.24H8.27472C9.01075 10.2446 9.3355 10.1075 9.48419 9.97586C9.61057 9.86402 9.75 9.62903 9.75 9.02V4.48C9.75 3.87153 9.61081 3.63539 9.4831 3.52191C9.33277 3.38835 9.00645 3.25 8.27 3.25H4.23C3.49355 3.25 3.16723 3.38835 3.0169 3.52191Z"/>
	<path fill-rule="evenodd" clip-rule="evenodd" d="M15.73 1.75C14.8765 1.75 14.0878 1.89665 13.5206 2.40059C12.9308 2.92461 12.75 3.67847 12.75 4.48V9.01C12.75 9.81497 12.9301 10.5706 13.5217 11.0941C14.0897 11.5968 14.8791 11.74 15.73 11.74H19.7678C20.6208 11.7451 21.4101 11.602 21.9783 11.0991C22.5694 10.576 22.75 9.82097 22.75 9.02V4.48C22.75 3.67847 22.5692 2.92461 21.9794 2.40059C21.4122 1.89665 20.6236 1.75 19.77 1.75H15.73ZM14.25 4.48C14.25 3.87153 14.3892 3.63539 14.5169 3.52191C14.6672 3.38835 14.9935 3.25 15.73 3.25H19.77C20.5065 3.25 20.8328 3.38835 20.9831 3.52191C21.1108 3.63539 21.25 3.87153 21.25 4.48V9.02C21.25 9.62903 21.1106 9.86402 20.9842 9.97586C20.8355 10.1075 20.5108 10.2446 19.7747 10.24L19.77 10.24H15.73C14.9909 10.24 14.6653 10.1032 14.5158 9.97087C14.3899 9.85945 14.25 9.62503 14.25 9.01V4.48Z"/>
	<path fill-rule="evenodd" clip-rule="evenodd" d="M15.73 13.25C14.8599 13.25 14.0562 13.4207 13.4884 13.9884C12.9207 14.5562 12.75 15.3599 12.75 16.23V20.27C12.75 21.1401 12.9207 21.9438 13.4884 22.5116C14.0562 23.0793 14.8599 23.25 15.73 23.25H19.77C20.6401 23.25 21.4438 23.0793 22.0116 22.5116C22.5793 21.9438 22.75 21.1401 22.75 20.27V16.23C22.75 15.3599 22.5793 14.5562 22.0116 13.9884C21.4438 13.4207 20.6401 13.25 19.77 13.25H15.73ZM14.25 16.23C14.25 15.5101 14.3993 15.1988 14.5491 15.0491C14.6988 14.8993 15.0101 14.75 15.73 14.75H19.77C20.4899 14.75 20.8012 14.8993 20.9509 15.0491C21.1007 15.1988 21.25 15.5101 21.25 16.23V20.27C21.25 20.9899 21.1007 21.3012 20.9509 21.4509C20.8012 21.6007 20.4899 21.75 19.77 21.75H15.73C15.0101 21.75 14.6988 21.6007 14.5491 21.4509C14.3993 21.3012 14.25 20.9899 14.25 20.27V16.23Z"/>
	<path fill-rule="evenodd" clip-rule="evenodd" d="M4.23 13.25C3.35988 13.25 2.55615 13.4207 1.98842 13.9884C1.42069 14.5562 1.25 15.3599 1.25 16.23V20.27C1.25 21.1401 1.42069 21.9438 1.98842 22.5116C2.55615 23.0793 3.35988 23.25 4.23 23.25H8.27C9.14012 23.25 9.94385 23.0793 10.5116 22.5116C11.0793 21.9438 11.25 21.1401 11.25 20.27V16.23C11.25 15.3599 11.0793 14.5562 10.5116 13.9884C9.94385 13.4207 9.14012 13.25 8.27 13.25H4.23ZM2.75 16.23C2.75 15.5101 2.89931 15.1988 3.04908 15.0491C3.19885 14.8993 3.51012 14.75 4.23 14.75H8.27C8.98988 14.75 9.30115 14.8993 9.45092 15.0491C9.60069 15.1988 9.75 15.5101 9.75 16.23V20.27C9.75 20.9899 9.60069 21.3012 9.45092 21.4509C9.30115 21.6007 8.98988 21.75 8.27 21.75H4.23C3.51012 21.75 3.19885 21.6007 3.04908 21.4509C2.89931 21.3012 2.75 20.9899 2.75 20.27V16.23Z"/>
</svg>