<svg id="logo-light" viewBox="0 0 84 42" fill="none" xmlns="http://www.w3.org/2000/svg">
<g clip-path="url(#clip0_507_8143)">
<path fill-rule="evenodd" clip-rule="evenodd" d="M45.2256 16.8755C45.0501 17.5245 44.8201 18.2597 44.5374 19.0814C44.2548 19.9041 43.9333 20.7561 43.5744 21.6388C43.2146 22.5214 42.8554 23.3244 42.4959 24.0487C42.1361 24.7732 41.7884 25.3734 41.4522 25.8477C41.116 26.3236 40.8331 26.5613 40.6031 26.5613C40.4658 26.5613 40.3628 26.5348 40.294 26.482C40.2249 26.4289 40.1748 26.3651 40.1449 26.2889C40.0988 26.2136 40.0758 26.1161 40.0758 25.9952C40.0758 25.8137 40.1561 25.4106 40.3167 24.7838C40.4777 24.158 40.6918 23.4378 40.9592 22.6233C41.2265 21.8087 41.5282 20.9492 41.8649 20.044C42.2011 19.1389 42.5488 18.309 42.9089 17.5548C43.2681 16.8002 43.6239 16.1782 43.9756 15.687C44.327 15.1974 44.6408 14.9518 44.9163 14.9518C44.9315 14.9518 44.9698 14.9559 45.0305 14.9627C45.0918 14.9709 45.1569 14.9937 45.2256 15.0312C45.2951 15.069 45.3558 15.1218 45.4093 15.1896C45.4628 15.2577 45.4896 15.3596 45.4896 15.4952C45.4896 15.7667 45.4012 16.2272 45.2256 16.8755ZM50.5361 10.7425L50.5364 10.741C51.1627 9.51464 51.6009 11.9048 53.3555 11.7783C55.1095 11.6524 55.4226 9.76647 55.4226 9.76647C54.2638 10.5526 52.9484 9.86083 51.7578 9.67211C51.0905 9.56588 50.5019 9.65867 50.1134 9.75959C50.1 9.76147 50.0879 9.76303 50.0739 9.76522C49.7841 9.80771 49.4756 9.89957 49.1482 10.0414C48.821 10.1823 48.5067 10.391 48.2051 10.6672C47.9038 10.9438 47.6703 11.3093 47.506 11.7633L46.3739 14.8515L46.373 14.8503C46.0751 14.6625 45.7766 14.5494 45.4781 14.5113C45.1802 14.4741 44.9698 14.455 44.8468 14.455C44.1739 14.455 43.5399 14.6097 42.9435 14.9178C42.3465 15.2268 41.8005 15.6373 41.3031 16.1488C40.8063 16.6609 40.3584 17.252 39.9613 17.9216C39.5635 18.5918 39.2273 19.2848 38.9515 20C38.6767 20.7149 38.466 21.4338 38.3206 22.1571C38.1759 22.8789 38.103 23.5494 38.103 24.1661C38.103 24.5579 38.1416 24.9313 38.2176 25.285C38.2945 25.6381 38.4243 25.9511 38.6079 26.222C38.7912 26.4926 39.0468 26.711 39.3764 26.8766C39.7048 27.0425 40.1219 27.125 40.6264 27.125C41.4827 27.125 42.2509 26.9257 42.932 26.5267C43.6121 26.1283 44.2084 25.6159 44.7211 24.9907C45.2334 24.3667 45.6652 23.6772 46.0172 22.9245C46.3686 22.1721 46.6556 21.4338 46.8775 20.7111C46.951 20.473 47.0148 20.245 47.0742 20.0206L50.5361 10.7425Z" fill="white"/>
<path fill-rule="evenodd" clip-rule="evenodd" d="M53.8862 16.8755C53.71 17.5245 53.48 18.2597 53.198 19.0814C52.9147 19.9041 52.5932 20.7561 52.2343 21.6388C51.8745 22.5214 51.5153 23.3244 51.1561 24.0487C50.796 24.7732 50.4483 25.3734 50.1121 25.8477C49.7753 26.3236 49.4927 26.5613 49.2633 26.5613C49.1254 26.5613 49.0227 26.5348 48.9533 26.482C48.8848 26.4289 48.8347 26.3651 48.8045 26.2889C48.7588 26.2136 48.7357 26.1161 48.7357 25.9952C48.7357 25.8137 48.816 25.4106 48.9766 24.7838C49.1369 24.158 49.3511 23.4378 49.6191 22.6233C49.8865 21.8087 50.1881 20.9492 50.5249 20.044C50.8616 19.1389 51.2093 18.309 51.5695 17.5548C51.9274 16.8002 52.2838 16.1782 52.6355 15.687C52.9869 15.1974 53.3007 14.9518 53.5768 14.9518C53.5914 14.9518 53.6297 14.9559 53.691 14.9627C53.7517 14.9709 53.8174 14.9937 53.8862 15.0312C53.9544 15.069 54.0157 15.1218 54.0692 15.1896C54.1227 15.2577 54.1495 15.3596 54.1495 15.4952C54.1495 15.7667 54.0617 16.2272 53.8862 16.8755ZM55.5381 20.7111C55.6103 20.473 55.6747 20.245 55.7341 20.0206L59.1954 10.7425L59.1966 10.741C59.8226 9.51464 60.2608 11.9048 62.0154 11.7783C63.7694 11.6524 64.0825 9.76647 64.0825 9.76647C62.9237 10.5526 61.6083 9.86083 60.4177 9.67211C59.7504 9.56588 59.1618 9.65867 58.7733 9.75959C58.7599 9.76147 58.7478 9.76303 58.7344 9.76522C58.444 9.80771 58.1355 9.89957 57.8087 10.0414C57.481 10.1823 57.1666 10.391 56.865 10.6672C56.5637 10.9438 56.3302 11.3093 56.1652 11.7633L55.0341 14.8515L55.0329 14.8503C54.735 14.6625 54.4365 14.5494 54.138 14.5113C53.8401 14.4741 53.6297 14.455 53.5074 14.455C52.8344 14.455 52.1998 14.6097 51.6034 14.9178C51.007 15.2268 50.4598 15.6373 49.963 16.1488C49.4659 16.6609 49.0183 17.252 48.6209 17.9216C48.2234 18.5918 47.8872 19.2848 47.6118 20C47.3363 20.7149 47.1259 21.4338 46.9805 22.1571C46.8361 22.8789 46.7629 23.5494 46.7629 24.1661C46.7629 24.5579 46.8012 24.9313 46.8772 25.285C46.9544 25.6381 47.0839 25.9511 47.2675 26.222C47.4511 26.4926 47.707 26.711 48.036 26.8766C48.365 27.0425 48.7815 27.125 49.286 27.125C50.1426 27.125 50.9114 26.9257 51.5919 26.5267C52.272 26.1283 52.869 25.6159 53.3816 24.9907C53.8933 24.3667 54.3251 23.6772 54.6777 22.9245C55.0285 22.1721 55.3161 21.4338 55.5381 20.7111Z" fill="white"/>
<path fill-rule="evenodd" clip-rule="evenodd" d="M36.6516 17.2153C36.4724 17.8427 36.2397 18.5535 35.9524 19.348C35.6648 20.1434 35.3388 20.9672 34.974 21.8206C34.6088 22.674 34.2437 23.4504 33.8791 24.1506C33.514 24.8512 33.1605 25.4315 32.8188 25.8901C32.477 26.3501 32.1901 26.58 31.957 26.58C31.8175 26.58 31.7123 26.5544 31.6427 26.5033C31.5731 26.4519 31.5223 26.3903 31.4912 26.3166C31.445 26.2438 31.4213 26.1496 31.4213 26.0326C31.4213 25.8571 31.5032 25.4674 31.6661 24.8614C31.8289 24.2564 32.0463 23.5601 32.3185 22.7725C32.5897 21.985 32.8964 21.1539 33.2384 20.2788C33.5799 19.4036 33.9333 18.6013 34.2982 17.872C34.663 17.1425 35.0241 16.541 35.3816 16.0661C35.7384 15.5928 36.0574 15.3553 36.337 15.3553C36.352 15.3553 36.3911 15.3592 36.453 15.3659C36.5152 15.3737 36.5811 15.3958 36.6516 15.4321C36.7212 15.4686 36.7828 15.5197 36.8376 15.5852C36.8915 15.6511 36.9188 15.7495 36.9188 15.8807C36.9188 16.1432 36.8299 16.5884 36.6516 17.2153ZM38.969 17.7572C38.969 17.0585 38.853 16.5126 38.6199 16.1199C38.3865 15.7266 38.119 15.4393 37.8157 15.2571C37.5134 15.0756 37.2101 14.9662 36.9078 14.9294C36.6051 14.8934 36.3911 14.875 36.2668 14.875C35.5836 14.875 34.9392 15.0245 34.3336 15.3224C33.7277 15.6212 33.1722 16.0181 32.6676 16.5126C32.1633 17.0077 31.7082 17.5793 31.3046 18.2267C30.9007 18.8747 30.5592 19.5447 30.2797 20.2362C30.0001 20.9273 29.7868 21.6225 29.6393 22.3218C29.6153 22.4357 29.5962 22.5459 29.5762 22.6571C29.433 22.8538 29.2948 23.0332 29.1618 23.1951C28.8665 23.5736 28.5635 23.8939 28.2535 24.1555C28.1288 24.2724 28.0124 24.3446 27.9037 24.3742C27.7948 24.4035 27.6784 24.4171 27.5549 24.4171C27.4613 24.4035 27.3951 24.3781 27.3566 24.3413C27.3175 24.305 27.2824 24.2573 27.2513 24.1996C27.2202 24.141 27.2052 24.0763 27.2052 24.0026L26.8092 20.2902V20.2467C26.8092 20.2325 26.8243 20.1963 26.8557 20.1377C27.0571 19.8178 27.2436 19.5048 27.4145 19.1988C27.5697 18.9363 27.7326 18.6677 27.9037 18.391C28.0743 18.1143 28.2221 17.8886 28.3465 17.7143C28.4241 17.5977 28.498 17.521 28.5682 17.4844C28.6377 17.4479 28.7039 17.4298 28.7658 17.4298C28.7969 17.4298 28.8354 17.4515 28.8825 17.4956C28.8976 17.5249 28.9056 17.5464 28.9056 17.5609C28.9056 17.7651 28.9481 17.914 29.0337 18.0083C29.119 18.1031 29.2163 18.1795 29.3249 18.2379C29.449 18.2965 29.5888 18.3324 29.744 18.3475C30.0857 18.3475 30.377 18.2638 30.6174 18.0962C30.8588 17.9285 31.0485 17.7285 31.1889 17.4956C31.3283 17.2624 31.4293 17.0262 31.4918 16.7857C31.5534 16.5456 31.5845 16.3453 31.5845 16.1855C31.5845 15.9232 31.5377 15.7233 31.445 15.5846C31.3517 15.4466 31.2507 15.3408 31.1421 15.268C31.0023 15.1952 30.8548 15.1445 30.6993 15.1152C30.3576 15.1152 30.0586 15.184 29.8025 15.3224C29.5463 15.4608 29.3326 15.6103 29.1618 15.7701C28.9601 15.9595 28.7889 16.171 28.6494 16.4039C28.5247 16.5927 28.3582 16.8479 28.1485 17.1679C27.9392 17.4881 27.7326 17.8013 27.5309 18.1067C27.2981 18.4853 27.0571 18.871 26.8092 19.2647L26.7627 19.3075C26.7467 19.3075 26.739 19.3009 26.739 19.2858L26.7156 19.2647L26.4829 16.1199C26.4669 16.0323 26.4478 15.9196 26.4247 15.7813C26.4016 15.6429 26.3582 15.5082 26.2966 15.3774C26.2341 15.246 26.1337 15.13 25.9936 15.0279C25.8539 14.9258 25.6593 14.875 25.4111 14.875C25.0999 14.875 24.7935 14.9587 24.4912 15.126C24.1885 15.2937 23.9164 15.4973 23.6756 15.7375C23.4345 15.9776 23.2406 16.2217 23.0934 16.4691C22.9456 16.7165 22.8717 16.9135 22.8717 17.0585C22.8717 17.1319 22.9182 17.1679 23.0118 17.1679C23.0737 17.1534 23.1476 17.1247 23.2329 17.0805C23.3181 17.037 23.3997 17.015 23.4776 17.015C23.5549 17.015 23.6525 17.0585 23.7686 17.1461C23.8856 17.2334 23.9589 17.4376 23.9903 17.7572L24.3163 21.3823V21.4261C24.3163 21.4409 24.3123 21.4557 24.3046 21.4699C24.2966 21.4841 24.2929 21.4989 24.2929 21.5134C23.998 22.0082 23.7181 22.4665 23.4542 22.8894C23.2363 23.2525 23.0152 23.6023 22.7904 23.9368C22.5651 24.2724 22.3905 24.4974 22.2661 24.6143C22.235 24.643 22.2039 24.6654 22.1731 24.6796C22.1417 24.6941 22.1183 24.7095 22.1032 24.7237L22.0564 24.7454C22.025 24.7599 21.9869 24.7672 21.9401 24.7672C21.8779 24.7672 21.8391 24.7454 21.8237 24.7013C21.8083 24.6868 21.8003 24.6654 21.8003 24.6358C21.7849 24.4325 21.7378 24.2724 21.6605 24.1555C21.5829 24.0395 21.4893 23.9525 21.381 23.8939C21.2566 23.8356 21.1248 23.7993 20.985 23.7842C20.5811 23.7842 20.2553 23.8721 20.0066 24.0467C19.7584 24.2213 19.5638 24.4283 19.4244 24.6684C19.2843 24.9089 19.1879 25.1569 19.1331 25.4116C19.0786 25.6659 19.0515 25.8662 19.0515 26.0118C19.0515 26.2743 19.102 26.4816 19.2027 26.6344C19.304 26.7867 19.4167 26.9002 19.5404 26.9721C19.6805 27.0594 19.8437 27.1108 20.0303 27.125C20.3409 27.125 20.6205 27.0594 20.8686 26.9292C21.1168 26.7978 21.3265 26.6528 21.4973 26.4927C21.699 26.3175 21.8856 26.1061 22.0564 25.8586C22.4139 25.3644 22.7396 24.8838 23.0352 24.4171C23.2988 24.0244 23.5549 23.628 23.804 23.2278C24.0521 22.8278 24.2384 22.5106 24.3625 22.2777C24.3625 22.2632 24.3705 22.2562 24.3859 22.2562C24.4013 22.2704 24.4093 22.2849 24.4093 22.2994L24.7353 26.2079C24.7824 26.3686 24.8437 26.5136 24.9216 26.6447C24.9992 26.7619 25.0999 26.8601 25.2249 26.9395C25.3489 27.0196 25.5041 27.0594 25.6907 27.0594C26.3739 27.0594 27.1544 26.5649 28.0318 25.5747C28.4856 25.0632 28.9552 24.44 29.4401 23.7102C29.4268 23.899 29.4176 24.0848 29.4176 24.2642C29.4176 24.643 29.4567 25.004 29.534 25.346C29.6122 25.6874 29.744 25.9901 29.9302 26.252C30.1168 26.5136 30.3763 26.7247 30.711 26.8848C31.0448 27.0452 31.4681 27.125 31.9804 27.125C32.8499 27.125 33.6307 26.9323 34.3216 26.5465C35.0124 26.1613 35.6184 25.6659 36.1387 25.0614C36.659 24.4582 37.0977 23.7914 37.4549 23.0637C37.8123 22.3363 38.1036 21.6225 38.3286 20.9237C38.5534 20.225 38.7166 19.5915 38.8176 19.0245C38.9182 18.456 38.969 18.0342 38.969 17.7572Z" fill="white"/>
<path fill-rule="evenodd" clip-rule="evenodd" d="M77.8284 23.3108C77.6148 23.8797 77.406 24.3204 77.2 24.6348C76.994 24.9489 76.8112 25.1882 76.6517 25.3527C76.4907 25.5169 76.3496 25.6184 76.2282 25.6554C76.1062 25.6932 76.0146 25.7112 75.9539 25.7112C75.7863 25.7112 75.7026 25.5321 75.7026 25.1733C75.7026 24.8149 75.7787 24.3238 75.931 23.704C76.0832 23.083 76.2856 22.406 76.5375 21.6735C76.7883 20.9407 77.0701 20.1961 77.3828 19.441C77.6945 18.6855 78.0147 18.0018 78.3428 17.3882C78.6703 16.7748 78.9908 16.2739 79.3028 15.885C79.6149 15.4958 79.8852 15.3015 80.1133 15.3015C80.2055 15.3015 80.2891 15.3238 80.3653 15.3685C80.4263 15.3989 80.4834 15.4548 80.5371 15.5368C80.5903 15.6193 80.6172 15.7199 80.6172 15.8397C80.6172 15.9446 80.5785 16.1094 80.503 16.3335L77.8284 23.3108ZM83.977 20.3045C83.9616 20.2747 83.9462 20.2452 83.9314 20.2148L83.8625 20.148C83.6187 20.6412 83.3828 21.0826 83.1544 21.4715C82.9254 21.8601 82.72 22.1897 82.5372 22.4585C82.3231 22.7729 82.1177 23.0417 81.9201 23.2661C81.6606 23.6702 81.4238 23.9169 81.2114 24.0063C80.9972 24.096 80.8528 24.1413 80.7773 24.1413C80.6399 24.1413 80.5371 24.096 80.4686 24.0063C80.3997 23.9169 80.3653 23.8272 80.3653 23.7366C80.3653 23.6333 80.3725 23.5581 80.3885 23.5128C80.403 23.4684 80.419 23.4383 80.4338 23.4234L83.8398 14.5616C83.8398 14.5162 83.8169 14.4936 83.7716 14.4936C83.6187 14.5088 83.4356 14.5271 83.2227 14.5498C83.0091 14.5721 82.781 14.6171 82.5372 14.6845C82.2929 14.7518 82.0458 14.853 81.7938 14.9874C81.5425 15.1212 81.3029 15.3015 81.0739 15.5256L81.051 15.5482L81.028 15.5706C80.9972 15.5706 80.9749 15.5482 80.9601 15.5032C80.9289 15.3685 80.8604 15.2416 80.7543 15.1212C80.6628 15.0175 80.5329 14.9234 80.3653 14.8412C80.1979 14.7596 79.9843 14.7186 79.7251 14.7186C79.2071 14.7186 78.6857 14.8676 78.1594 15.1671C77.6335 15.4663 77.1233 15.8735 76.6288 16.3897C76.1333 16.9061 75.6678 17.5002 75.2346 18.1731C74.7993 18.8463 74.4229 19.5571 74.103 20.3045C73.7825 21.0528 73.5273 21.8157 73.3373 22.5929C73.3016 22.7381 73.2726 22.8818 73.2436 23.0252C73.1376 23.1817 73.0328 23.3117 72.9306 23.412C72.7863 23.5541 72.6564 23.6627 72.5425 23.7366C72.428 23.8123 72.3247 23.8608 72.2343 23.8831C72.1425 23.9055 72.0733 23.9169 72.028 23.9169C71.8912 23.9169 71.7954 23.8757 71.7425 23.7934C71.6894 23.7112 71.6628 23.6255 71.6628 23.5355C71.6628 23.4908 71.6697 23.4309 71.6852 23.3558C71.7006 23.2813 71.7425 23.1618 71.8108 22.9964C71.88 22.8322 71.9712 22.5929 72.0845 22.2794C72.199 21.9653 72.363 21.5466 72.5766 21.0227C72.6989 20.7241 72.798 20.4503 72.8736 20.2036C72.9503 19.9565 72.988 19.707 72.988 19.4525C72.988 19.1685 72.9418 18.9441 72.8509 18.779C72.7597 18.6151 72.6452 18.4946 72.5083 18.4205C72.3709 18.3457 72.2226 18.2966 72.0622 18.2743C71.9023 18.2522 71.7613 18.2408 71.6398 18.2408C71.4115 18.2408 71.1783 18.2631 70.9423 18.3078C70.7058 18.3528 70.4967 18.3978 70.314 18.4425C70.1004 18.5027 69.8938 18.5695 69.6968 18.6449H69.6739C69.6585 18.6449 69.6509 18.6219 69.6509 18.5775C69.666 18.5468 69.7841 18.4124 70.0056 18.1731C70.2261 17.9338 70.4928 17.6762 70.8049 17.3993C71.1175 17.1228 71.4528 16.872 71.8108 16.6479C72.1691 16.4232 72.4999 16.3111 72.8056 16.3111C72.9418 16.3111 73.0753 16.3481 73.2049 16.4232C73.3342 16.4986 73.4152 16.6479 73.4451 16.872V16.9167C73.4451 16.9471 73.4605 16.9617 73.4907 16.9617C73.4759 16.9617 73.4989 16.9471 73.5596 16.9167C73.788 16.7522 73.9855 16.5731 74.1538 16.3785C74.306 16.214 74.4429 16.0234 74.5649 15.8065C74.6873 15.5895 74.7486 15.3543 74.7486 15.0994C74.7486 14.8601 74.6948 14.7034 74.5879 14.6283C74.4812 14.5541 74.3592 14.5165 74.2227 14.5165C73.9484 14.5165 73.6399 14.6062 73.2965 14.7853C72.9536 14.9644 72.6074 15.1857 72.257 15.4474C71.906 15.709 71.5595 16.0011 71.216 16.322C70.8741 16.6439 70.5653 16.9471 70.291 17.2314C70.0167 17.5151 69.7805 17.7662 69.5817 17.9825C69.3842 18.1995 69.2543 18.3305 69.1936 18.3752L69.125 18.4425C69.0945 18.4425 69.0797 18.4205 69.0797 18.3752L72.4621 9.67C72.4621 9.64021 72.4392 9.625 72.3932 9.625C72.2108 9.64021 71.9667 9.66628 71.6628 9.70353C71.3571 9.74077 71.0414 9.82706 70.7133 9.96176C70.3859 10.0962 70.0696 10.2948 69.7654 10.5558C69.4603 10.8181 69.2244 11.1732 69.0567 11.6223L65.3867 21.081C65.3562 21.1388 65.3266 21.2027 65.2961 21.2586C65.1018 21.6099 64.923 21.9128 64.7583 22.1667C64.565 22.4659 64.3708 22.7422 64.1774 22.9973C63.834 23.4759 63.5542 23.7785 63.3376 23.9055C63.1217 24.0327 62.9537 24.096 62.835 24.096C62.7005 24.096 62.6033 24.0516 62.5441 23.9623C62.4839 23.8722 62.4543 23.7745 62.4543 23.6702C62.4543 23.5954 62.4691 23.4982 62.4994 23.3787C62.5142 23.3188 62.529 23.2735 62.5441 23.244L65.8329 14.4492C65.8329 14.4191 65.8099 14.4045 65.7655 14.4045C65.5864 14.4191 65.348 14.4455 65.0499 14.4824C64.7508 14.52 64.4457 14.6062 64.1324 14.7406C63.8198 14.8753 63.5171 15.0737 63.2262 15.3353C62.9353 15.597 62.7005 15.9524 62.5217 16.4012L60.7983 20.9106C60.6645 21.2694 60.508 21.6279 60.3292 21.9876C60.15 22.3461 59.9522 22.6683 59.7362 22.952C59.5199 23.2366 59.2809 23.4684 59.0199 23.6478C58.7586 23.8272 58.4795 23.9169 58.1811 23.9169C58.0765 23.9169 58.0246 23.8353 58.0246 23.6702C58.0246 23.5203 58.0611 23.3558 58.136 23.1767L61.4031 14.4492C61.4031 14.4191 61.3807 14.4045 61.3357 14.4045C61.1569 14.4191 60.9179 14.4455 60.6195 14.4824C60.321 14.52 60.0117 14.6062 59.6915 14.7406C59.3704 14.8753 59.0607 15.0737 58.7629 15.3353C58.4647 15.597 58.2336 15.9524 58.069 16.4012L54.8252 25.0163C54.6464 25.5095 54.5566 25.8987 54.5566 26.1824C54.5566 26.4077 54.5944 26.5797 54.6681 26.6992C54.743 26.819 54.8327 26.9118 54.9373 26.9794C55.0415 27.0468 55.146 27.0878 55.2505 27.1027C55.3547 27.1176 55.4375 27.125 55.4964 27.125C55.8689 27.1101 56.264 26.9645 56.6824 26.6874C57.0996 26.4111 57.4947 26.0896 57.8678 25.7227C58.2406 25.3568 58.5765 24.9865 58.8749 24.6125C59.1728 24.2391 59.3963 23.9548 59.5459 23.7596C59.5758 23.7152 59.6208 23.6587 59.6803 23.591C59.7392 23.5243 59.7848 23.4908 59.8147 23.4908C59.8289 23.4908 59.8365 23.5054 59.8365 23.5355C59.8365 23.5507 59.8332 23.5625 59.8259 23.569C59.8184 23.5771 59.8147 23.5879 59.8147 23.6025V23.6255C59.6803 23.9548 59.5604 24.2605 59.4562 24.5451C59.367 24.799 59.2849 25.0616 59.2106 25.3304C59.1356 25.5995 59.0985 25.8239 59.0985 26.0039C59.0985 26.2581 59.1616 26.4968 59.2885 26.7221C59.4154 26.9456 59.6718 27.0583 60.0603 27.0583C60.4479 27.0583 60.8923 26.9053 61.3913 26.5977C61.8916 26.2916 62.4021 25.8723 62.9241 25.3413C63.441 24.8161 63.9506 24.1975 64.4523 23.4896L63.0676 27.0583V27.0806C63.0676 27.1101 63.0905 27.125 63.1365 27.125H63.2509C63.4038 27.125 63.6243 27.1027 63.9134 27.0583C64.2031 27.0133 64.5076 26.9236 64.8281 26.7886C65.1483 26.6535 65.4601 26.4564 65.7655 26.1942C66.07 25.9325 66.3059 25.5771 66.4736 25.129L68.0967 20.9553C68.3251 20.5515 68.538 20.2306 68.7362 19.991C68.9347 19.7514 69.1552 19.5347 69.3996 19.3404C69.6425 19.1458 69.8938 19.0487 70.1536 19.0487C70.2303 19.0487 70.298 19.0676 70.3593 19.1042C70.4203 19.1421 70.4508 19.2275 70.4508 19.3625C70.4508 19.4975 70.4049 19.6837 70.314 19.9236C69.8421 21.1198 69.4685 22.0814 69.1936 22.8058C68.9199 23.5318 68.7096 24.1035 68.5652 24.5228C68.4199 24.9415 68.3293 25.2485 68.2915 25.4424C68.2526 25.6374 68.2335 25.8015 68.2335 25.9366C68.2335 26.1759 68.2942 26.3848 68.4166 26.5648C68.538 26.7435 68.7972 26.8485 69.1936 26.8783C69.5286 26.8783 69.9134 26.7771 70.3481 26.5756C70.7825 26.3742 71.2544 26.0409 71.7655 25.5771C72.186 25.1951 72.6267 24.7096 73.0847 24.133C73.0651 24.3701 73.0515 24.6054 73.0515 24.8363C73.0515 25.5542 73.1775 26.116 73.4282 26.5198C73.6801 26.9236 74.11 27.125 74.7196 27.125C74.7803 27.125 74.906 27.1101 75.0972 27.0806C75.2872 27.0508 75.5201 26.9602 75.7947 26.8106C76.0684 26.6619 76.3617 26.4341 76.6744 26.1265C76.9864 25.8208 77.2873 25.3906 77.577 24.8363C77.5924 24.8363 77.6072 24.8298 77.6223 24.8149L77.6685 24.7695L77.6456 24.8592C77.5994 24.993 77.5541 25.129 77.5084 25.263C77.4779 25.3832 77.4471 25.5129 77.4172 25.6554C77.3864 25.7978 77.371 25.944 77.371 26.0936C77.371 26.3478 77.4402 26.5722 77.577 26.7665C77.7145 26.9602 77.9353 27.0573 78.2395 27.0573C78.6207 27.0573 79.0473 26.9053 79.52 26.5977C79.9925 26.2916 80.4758 25.8764 80.9712 25.3527C81.4664 24.8298 81.9578 24.213 82.4451 23.5013C82.933 22.7918 83.3828 22.0317 83.7939 21.2247C83.8854 21.045 83.9431 20.892 83.9655 20.7644C83.9888 20.6375 83.9999 20.5366 83.9999 20.4618C83.9999 20.3873 83.9915 20.3349 83.977 20.3045Z" fill="white"/>
<mask id="mask0_507_8143" style="mask-type:luminance" maskUnits="userSpaceOnUse" x="0" y="0" width="33" height="42">
<path d="M0 0.100342H32.8806V41.2759H0V0.100342Z" fill="#EBB835"/>
</mask>
<g mask="url(#mask0_507_8143)">
<path fill-rule="evenodd" clip-rule="evenodd" d="M13.087 12.5235L9.91756 9.40705C9.92335 9.49231 9.92549 9.58059 9.93463 9.66254C9.27252 9.58933 8.49798 9.6294 7.61406 9.81469C6.45225 10.0584 5.00494 10.6568 3.8148 10.5604C3.49334 10.5351 3.25934 10.5206 2.86537 10.3947L2.87969 10.4025C2.94367 10.4579 2.99669 10.5082 3.04788 10.5583L8.16373 13.384L8.36849 13.3481C8.49311 13.3692 8.60737 13.3789 8.74113 13.3894C9.62902 13.4611 10.7098 13.0146 11.5779 12.8323C12.0529 12.7329 12.8743 12.695 12.8743 12.695L13.0919 12.7013L13.087 12.5235ZM13.8076 8.51375C13.79 8.30827 13.7756 8.14859 13.7049 7.91931L13.7119 7.8687L10.7402 2.90776C10.7281 2.8948 10.7168 2.88547 10.7046 2.8713L10.6961 2.85775C10.8268 3.23736 10.8414 3.46242 10.8685 3.77244C10.9685 4.91762 10.346 6.31046 10.0928 7.42882C9.92549 8.17028 9.87826 8.82708 9.91756 9.40705L13.087 12.5235L13.2921 10.9963C13.5035 10.2088 13.8744 9.28563 13.8076 8.51375ZM8.73808 22.7006C8.10188 22.1248 7.42088 21.274 6.64451 20.9218C6.42666 20.8224 6.26974 20.7483 5.96839 20.688H0.00213288C0.407379 20.7688 0.61762 20.8685 0.908605 21.0004C1.98967 21.4903 2.93179 22.7045 3.81114 23.4758C4.33644 23.9346 4.84894 24.2811 5.34072 24.5342L9.79233 23.4671L8.73808 22.7006ZM9.94529 17.5875C9.94529 17.5875 9.92701 17.5529 9.90172 17.504L5.48972 16.2814C5.57351 16.4125 5.65943 16.5387 5.7484 16.6541C5.1381 16.9102 4.48909 17.3164 3.8215 17.9014C2.94093 18.6715 1.99911 19.8866 0.91805 20.3759C0.628589 20.5075 0.418043 20.6067 0.0164536 20.6877H0C0.000914089 20.6877 0.00152348 20.688 0.00213288 20.688H5.96839L5.96931 20.6877H5.97845C6.27827 20.6269 6.43549 20.5536 6.65122 20.4545C7.45836 20.0894 8.1616 19.1825 8.81852 18.607C9.17776 18.2931 9.8679 17.8656 9.8679 17.8656L10.0589 17.7653L9.94529 17.5875ZM9.34291 16.179C9.11956 15.3984 8.96143 14.4301 8.50438 13.7965C8.39591 13.6464 8.30907 13.5256 8.16373 13.384L3.04788 10.5583C3.23892 10.7463 3.3541 10.9062 3.49822 11.106C4.18013 12.0502 4.36447 13.5563 4.72706 14.6464C4.93974 15.289 5.19995 15.8292 5.48972 16.2814L9.90172 17.504L9.34291 16.179ZM17.2742 5.47711C17.2492 5.52742 17.2184 5.58015 17.1952 5.63046C16.6608 5.25024 15.9716 4.91401 15.1132 4.65008C13.9804 4.3009 12.4161 4.12344 11.4356 3.46724C11.1845 3.30003 10.9938 3.17349 10.7402 2.90776L13.7119 7.8687C13.9015 8.06664 14.0435 8.16124 14.2305 8.28598C14.9636 8.77616 16.1312 8.90812 16.9771 9.16874C17.4381 9.31064 18.166 9.67128 18.166 9.67128L18.3513 9.78034L18.4101 9.67519L17.2742 5.47711ZM32.8451 9.66646C32.9206 9.02864 32.8798 8.28115 32.6869 7.42882C32.434 6.31046 31.8124 4.91823 31.9115 3.77244C31.9386 3.46303 31.9538 3.23736 32.0845 2.85775L32.0757 2.87221C32.0736 2.87462 32.0717 2.87613 32.0693 2.87854L29.09 7.8467L29.0918 7.86177C29.005 8.12569 28.9919 8.2908 28.9724 8.51375C28.898 9.36879 29.3627 10.4082 29.5513 11.2446C29.6549 11.7031 29.6936 12.494 29.6936 12.494L29.6878 12.7034L29.8505 12.7004C29.8505 12.7004 32.9194 9.65862 32.8451 9.66646ZM25.5814 5.63257C25.3157 5.04567 24.8931 4.42081 24.2858 3.77817C23.4854 2.93096 22.2233 2.02349 21.7145 0.983461C21.5777 0.704774 21.4747 0.502311 21.3912 0.116066V0.100098C21.3906 0.101905 21.3903 0.102809 21.39 0.104918V5.84648L21.3906 5.84799V5.85371C21.4534 6.14294 21.5302 6.29359 21.6325 6.50268C22.0125 7.27939 22.9546 7.95577 23.5521 8.58786C23.8784 8.93313 24.3224 9.59746 24.3224 9.59746L24.4263 9.78215L24.4921 9.74298L25.6743 5.57261C25.6448 5.5934 25.61 5.61208 25.5814 5.63257ZM21.0658 0.975327C20.5566 2.01506 19.2949 2.92132 18.4948 3.76883C17.9369 4.35814 17.5423 4.93178 17.2742 5.47711L18.4101 9.67519L19.3805 8.42908C19.9753 7.84008 20.7983 7.21009 21.1484 6.49484C21.2501 6.28666 21.3269 6.13541 21.39 5.84648V0.104918C21.3062 0.493273 21.2029 0.694832 21.0658 0.975327ZM31.3447 3.46724C30.3642 4.12404 28.7996 4.3015 27.6664 4.65008C26.8532 4.89985 26.1969 5.2174 25.6743 5.57261L24.4921 9.74298L26.0552 9.09884C26.87 8.88101 27.8867 8.72916 28.5497 8.28598C28.7438 8.15733 28.8886 8.06212 29.09 7.8467L32.0693 2.87854C31.7993 3.16747 31.6056 3.2934 31.3447 3.46724ZM16.7245 32.2832C15.9091 32.501 14.8905 32.6529 14.2272 33.0967C14.0313 33.2265 13.8868 33.3202 13.6851 33.5366L10.704 38.5083C10.9746 38.2176 11.1686 38.0917 11.4304 37.9163C12.4112 37.2604 13.9755 37.0827 15.1084 36.7353C15.9231 36.4846 16.5807 36.1671 17.1035 35.811L18.2857 31.6391L16.7245 32.2832ZM32.8588 31.9657L29.6896 28.8489L29.491 30.3493C29.281 31.1417 28.9014 32.0756 28.9693 32.8572C28.9873 33.0672 29.0013 33.2308 29.0781 33.4727L29.0726 33.514L32.0437 38.4749C32.058 38.4906 32.0708 38.5014 32.0858 38.5171L32.0772 38.5035C31.9489 38.1281 31.9334 37.904 31.9078 37.5964C31.8073 36.45 32.4295 35.0577 32.6827 33.94C32.8496 33.1991 32.8969 32.5435 32.8588 31.9657ZM29.0726 33.514C28.8831 33.3154 28.7408 33.222 28.5531 33.0967C27.8206 32.6065 26.6524 32.473 25.8066 32.213C25.3422 32.0708 24.6106 31.7066 24.6106 31.7066L24.4251 31.5975L24.3687 31.6963L25.5046 35.8926C25.5284 35.845 25.5579 35.795 25.5796 35.7474C26.1161 36.1294 26.8084 36.469 27.6719 36.7341C28.8048 37.0827 30.3691 37.2604 31.3496 37.9163C31.6004 38.0841 31.7905 38.2101 32.0437 38.4749L29.0726 33.514ZM11.2512 28.466C10.4487 28.2599 9.52085 27.9236 8.74113 27.9869C8.54095 28.0029 8.38281 28.0155 8.16617 28.0731L8.08786 28.0637L2.94245 30.9157C2.92052 30.9359 2.90376 30.9521 2.87969 30.9741L2.86567 30.982C3.25964 30.8557 3.49334 30.8416 3.8148 30.8151C5.00525 30.7193 6.45225 31.3179 7.61467 31.5625C8.39652 31.7261 9.08788 31.7698 9.69666 31.7292L12.9258 28.6799L11.2512 28.466ZM13.2321 30.126C13.1291 29.6711 13.0898 28.8832 13.0898 28.8832L13.0949 28.6747L12.9258 28.6799L9.69666 31.7292C9.77679 31.7237 9.8615 31.7219 9.93859 31.7132C9.86485 32.3495 9.90629 33.0919 10.0976 33.94C10.3508 35.0589 10.973 36.4512 10.8728 37.5964C10.8469 37.904 10.8307 38.1293 10.7025 38.5041L10.6939 38.5177C10.6976 38.5138 10.7003 38.5114 10.704 38.5083L13.6851 33.5366L13.6842 33.5326C13.7793 33.254 13.7909 33.0864 13.811 32.8572C13.8853 32.0021 13.4207 30.9621 13.2321 30.126ZM9.86546 23.5132C9.86546 23.5132 9.83499 23.4942 9.79233 23.4671L5.34072 24.5342C5.47753 24.6038 5.61251 24.6698 5.74597 24.7255C5.35108 25.2401 5.00159 25.9032 4.72737 26.7294C4.36508 27.82 4.18074 29.3255 3.49883 30.27C3.33033 30.5038 3.20023 30.6834 2.94245 30.9157L8.08786 28.0637C8.28165 27.8887 8.37854 27.7537 8.50438 27.5799C9.01383 26.8746 9.15156 25.7499 9.42182 24.9358C9.5696 24.492 9.94407 23.7909 9.94407 23.7909L10.0571 23.6138L9.86546 23.5132ZM24.3687 31.6963L23.4077 32.9331C22.812 33.5245 21.9832 34.156 21.6325 34.8743C21.5302 35.083 21.4534 35.2337 21.3906 35.5226V35.5283L21.39 35.5295V41.2711C21.3903 41.2735 21.3906 41.2747 21.3912 41.2759V41.26C21.4747 40.874 21.5777 40.6716 21.7145 40.3932C22.2233 39.3528 23.4854 38.4454 24.2858 37.5982C24.8425 37.0092 25.2368 36.4364 25.5046 35.8926L24.3687 31.6963ZM21.39 35.5295V41.2711C21.3062 40.8828 21.2029 40.6815 21.0658 40.4019C20.5566 39.3616 19.2949 38.4547 18.4948 37.6075C17.886 36.9637 17.4634 36.3376 17.1974 35.7492C17.1684 35.7709 17.1337 35.7893 17.1035 35.811L18.2857 31.6391L18.3528 31.599L18.4561 31.7825C18.4561 31.7825 18.9006 32.4483 19.2279 32.7951C19.8254 33.4272 20.7678 34.1039 21.1484 34.8818C21.2501 35.09 21.3269 35.2406 21.39 35.5295Z" fill="#FEC32B"/>
</g>
</g>
<defs>
<clipPath id="clip0_507_8143">
<rect width="84" height="42" fill="white"/>
</clipPath>
</defs>
</svg>
