<svg id="logo-dark" viewBox="0 0 140 69" fill="none" xmlns="http://www.w3.org/2000/svg">
<path fill-rule="evenodd" clip-rule="evenodd" d="M75.3762 27.7241C75.0836 28.7902 74.7002 29.998 74.2292 31.348C73.7581 32.6995 73.2223 34.0993 72.6241 35.5494C72.0244 36.9995 71.4258 38.3187 70.8266 39.5085C70.2269 40.6989 69.6474 41.6849 69.0871 42.4641C68.5269 43.2459 68.0553 43.6365 67.6719 43.6365C67.4431 43.6365 67.2714 43.5929 67.1568 43.5061C67.0416 43.4189 66.9581 43.3141 66.9083 43.1889C66.8315 43.0652 66.7931 42.905 66.7931 42.7064C66.7931 42.4082 66.927 41.746 67.1947 40.7163C67.4629 39.6882 67.8198 38.505 68.2654 37.1668C68.711 35.8286 69.2137 34.4165 69.775 32.9295C70.3353 31.4425 70.9148 30.0791 71.515 28.84C72.1136 27.6004 72.7066 26.5784 73.2928 25.7715C73.8785 24.9671 74.4014 24.5637 74.8605 24.5637C74.886 24.5637 74.9498 24.5704 75.0509 24.5817C75.1531 24.595 75.2615 24.6325 75.3762 24.6941C75.4919 24.7562 75.593 24.8429 75.6823 24.9543C75.7715 25.0662 75.8161 25.2336 75.8161 25.4563C75.8161 25.9024 75.6688 26.659 75.3762 27.7241ZM84.2269 17.6485L84.2275 17.6459C85.2712 15.6312 86.0017 19.558 88.926 19.3501C91.8493 19.1432 92.3711 16.0449 92.3711 16.0449C90.4397 17.3364 88.2474 16.1999 86.2631 15.8899C85.1509 15.7154 84.1699 15.8678 83.5225 16.0336C83.5001 16.0367 83.4799 16.0393 83.4566 16.0429C82.9736 16.1127 82.4595 16.2636 81.9137 16.4966C81.3685 16.7281 80.8446 17.071 80.3419 17.5248C79.8397 17.979 79.4506 18.5796 79.1767 19.3254L77.2899 24.3989L77.2884 24.3969C76.7919 24.0884 76.2944 23.9026 75.7969 23.8399C75.3005 23.7789 74.9498 23.7475 74.7448 23.7475C73.6233 23.7475 72.5665 24.0016 71.5726 24.5077C70.5776 25.0154 69.6676 25.6899 68.8386 26.5302C68.0107 27.3715 67.2642 28.3426 66.6022 29.4426C65.9392 30.5437 65.379 31.6822 64.9193 32.8571C64.4613 34.0316 64.11 35.2127 63.8678 36.401C63.6265 37.5867 63.5052 38.6883 63.5052 39.7015C63.5052 40.3452 63.5695 40.9586 63.6961 41.5397C63.8242 42.1197 64.0405 42.634 64.3466 43.0791C64.6522 43.5236 65.0781 43.8824 65.6274 44.1544C66.1748 44.427 66.8699 44.5625 67.7108 44.5625C69.138 44.5625 70.4183 44.235 71.5534 43.5795C72.6869 42.9251 73.6809 42.0832 74.5353 41.0561C75.3892 40.0311 76.1087 38.8982 76.6954 37.6617C77.2811 36.4256 77.7594 35.2127 78.1293 34.0254C78.2517 33.6343 78.3581 33.2596 78.4572 32.891L84.2269 17.6485Z" fill="#3C3C3C"/>
<path fill-rule="evenodd" clip-rule="evenodd" d="M89.8102 27.7241C89.5166 28.7902 89.1332 29.998 88.6632 31.348C88.1911 32.6995 87.6552 34.0993 87.0571 35.5494C86.4574 36.9995 85.8587 38.3187 85.2601 39.5085C84.6599 40.6989 84.0804 41.6849 83.5201 42.4641C82.9588 43.2459 82.4878 43.6365 82.1054 43.6365C81.8756 43.6365 81.7044 43.5929 81.5887 43.5061C81.4746 43.4189 81.3911 43.3141 81.3408 43.1889C81.2645 43.0652 81.2261 42.905 81.2261 42.7064C81.2261 42.4082 81.36 41.746 81.6276 40.7163C81.8948 39.6882 82.2517 38.505 82.6984 37.1668C83.144 35.8286 83.6467 34.4165 84.208 32.9295C84.7693 31.4425 85.3488 30.0791 85.949 28.84C86.5456 27.6004 87.1396 26.5784 87.7258 25.7715C88.3115 24.9671 88.8344 24.5637 89.2946 24.5637C89.3189 24.5637 89.3827 24.5704 89.4849 24.5817C89.5861 24.595 89.6956 24.6325 89.8102 24.6941C89.9238 24.7562 90.026 24.8429 90.1153 24.9543C90.2045 25.0662 90.2491 25.2336 90.2491 25.4563C90.2491 25.9024 90.1028 26.659 89.8102 27.7241ZM92.5633 34.0254C92.6837 33.6343 92.7911 33.2596 92.8902 32.891L98.6589 17.6485L98.661 17.6459C99.7042 15.6312 100.435 19.558 103.359 19.3501C106.282 19.1432 106.804 16.0449 106.804 16.0449C104.873 17.3364 102.68 16.1999 100.696 15.8899C99.5839 15.7154 98.6029 15.8678 97.9554 16.0336C97.9331 16.0367 97.9129 16.0393 97.8906 16.0429C97.4066 16.1127 96.8925 16.2636 96.3478 16.4966C95.8015 16.7281 95.2775 17.071 94.7749 17.5248C94.2727 17.979 93.8836 18.5796 93.6087 19.3254L91.7234 24.3989L91.7214 24.3969C91.2249 24.0884 90.7274 23.9026 90.2299 23.8399C89.7334 23.7789 89.3827 23.7475 89.1789 23.7475C88.0573 23.7475 86.9995 24.0016 86.0055 24.5077C85.0116 25.0154 84.0996 25.6899 83.2716 26.5302C82.4431 27.3715 81.6972 28.3426 81.0347 29.4426C80.3722 30.5437 79.8119 31.6822 79.3528 32.8571C78.8937 34.0316 78.543 35.2127 78.3008 36.401C78.0601 37.5867 77.9381 38.6883 77.9381 39.7015C77.9381 40.3452 78.0019 40.9586 78.1285 41.5397C78.2572 42.1197 78.473 42.634 78.7791 43.0791C79.0851 43.5236 79.5116 43.8824 80.0599 44.1544C80.6083 44.427 81.3024 44.5625 82.1433 44.5625C83.571 44.5625 84.8523 44.235 85.9864 43.5795C87.1199 42.9251 88.1149 42.0832 88.9693 41.0561C89.8221 40.0311 90.5417 38.8982 91.1295 37.6617C91.7141 36.4256 92.1935 35.2127 92.5633 34.0254Z" fill="#3C3C3C"/>
<path fill-rule="evenodd" clip-rule="evenodd" d="M61.0861 28.2822C60.7874 29.313 60.3995 30.4808 59.9207 31.786C59.4415 33.0928 58.8981 34.4462 58.29 35.8482C57.6814 37.2502 57.0728 38.5256 56.4653 39.676C55.8567 40.8269 55.2676 41.7803 54.698 42.5337C54.1284 43.2895 53.6502 43.6672 53.2618 43.6672C53.0293 43.6672 52.8538 43.625 52.7378 43.5411C52.6219 43.4568 52.5372 43.3555 52.4854 43.2344C52.4084 43.1148 52.3689 42.96 52.3689 42.7679C52.3689 42.4796 52.5054 41.8394 52.7768 40.8438C53.0483 39.8497 53.4106 38.7058 53.8642 37.412C54.3163 36.1181 54.8273 34.7529 55.3974 33.3151C55.9665 31.8774 56.5556 30.5592 57.1637 29.3612C57.7717 28.1626 58.3736 27.1745 58.9694 26.3944C59.5641 25.6167 60.0957 25.2266 60.5616 25.2266C60.5868 25.2266 60.652 25.2331 60.7551 25.244C60.8588 25.2569 60.9686 25.2931 61.0861 25.3527C61.202 25.4127 61.3047 25.4966 61.396 25.6043C61.4858 25.7125 61.5315 25.8743 61.5315 26.0896C61.5315 26.5209 61.3832 27.2525 61.0861 28.2822ZM64.9485 29.1726C64.9485 28.0247 64.755 27.1279 64.3666 26.4827C63.9776 25.8365 63.5317 25.3646 63.0262 25.0653C62.5223 24.767 62.0169 24.5874 61.513 24.5268C61.0086 24.4678 60.652 24.4375 60.4447 24.4375C59.306 24.4375 58.232 24.6832 57.2227 25.1725C56.2128 25.6633 55.2871 26.3155 54.4461 27.1279C53.6056 27.9413 52.8471 28.8803 52.1744 29.9438C51.5012 31.0084 50.9321 32.1091 50.4662 33.2451C50.0003 34.3806 49.6446 35.5226 49.3989 36.6715C49.3588 36.8586 49.327 37.0398 49.2937 37.2224C49.0551 37.5455 48.8247 37.8403 48.603 38.1063C48.1109 38.7281 47.606 39.2542 47.0892 39.684C46.8814 39.876 46.6874 39.9947 46.5063 40.0433C46.3247 40.0914 46.1307 40.1138 45.9249 40.1138C45.7689 40.0914 45.6586 40.0498 45.5945 39.9892C45.5293 39.9296 45.4708 39.8512 45.419 39.7564C45.3671 39.6602 45.342 39.554 45.342 39.4329L44.6821 33.334V33.2625C44.6821 33.2392 44.7072 33.1796 44.7596 33.0833C45.0952 32.5578 45.4061 32.0436 45.6909 31.5409C45.9495 31.1096 46.221 30.6684 46.5063 30.2138C46.7906 29.7592 47.0369 29.3885 47.2442 29.1021C47.3735 28.9106 47.4967 28.7845 47.6137 28.7244C47.7296 28.6644 47.8399 28.6346 47.9431 28.6346C47.9949 28.6346 48.0591 28.6703 48.1376 28.7428C48.1627 28.7909 48.1761 28.8262 48.1761 28.85C48.1761 29.1855 48.2469 29.4302 48.3895 29.585C48.5317 29.7408 48.6938 29.8664 48.8749 29.9622C49.0817 30.0585 49.3147 30.1175 49.5733 30.1423C50.1429 30.1423 50.6283 30.0049 51.0291 29.7294C51.4314 29.454 51.7475 29.1254 51.9815 28.7428C52.2139 28.3597 52.3822 27.9716 52.4864 27.5765C52.589 27.182 52.6409 26.8529 52.6409 26.5904C52.6409 26.1596 52.5629 25.8311 52.4084 25.6033C52.2529 25.3765 52.0846 25.2028 51.9035 25.0832C51.6705 24.9636 51.4247 24.8802 51.1656 24.832C50.596 24.832 50.0977 24.9452 49.6708 25.1725C49.2439 25.3998 48.8878 25.6455 48.603 25.908C48.2669 26.2192 47.9816 26.5666 47.7491 26.9492C47.5413 27.2594 47.2637 27.6788 46.9142 28.2043C46.5653 28.7304 46.221 29.245 45.8849 29.7468C45.497 30.3686 45.0952 31.0024 44.6821 31.6491L44.6046 31.7195C44.5779 31.7195 44.5651 31.7086 44.5651 31.6838L44.5261 31.6491L44.1382 26.4827C44.1115 26.3388 44.0797 26.1537 44.0412 25.9264C44.0027 25.6991 43.9304 25.4777 43.8277 25.2628C43.7236 25.0469 43.5563 24.8564 43.3228 24.6886C43.0898 24.5209 42.7655 24.4375 42.3519 24.4375C41.8332 24.4375 41.3226 24.575 40.8187 24.8499C40.3143 25.1254 39.8607 25.4599 39.4594 25.8544C39.0576 26.249 38.7343 26.65 38.489 27.0564C38.2427 27.4629 38.1196 27.7865 38.1196 28.0247C38.1196 28.1453 38.1971 28.2043 38.3531 28.2043C38.4562 28.1805 38.5794 28.1334 38.7215 28.0609C38.8636 27.9894 38.9996 27.9532 39.1294 27.9532C39.2582 27.9532 39.4209 28.0247 39.6144 28.1686C39.8093 28.312 39.9315 28.6475 39.9838 29.1726L40.5272 35.1281V35.2C40.5272 35.2243 40.5206 35.2487 40.5077 35.272C40.4944 35.2953 40.4882 35.3196 40.4882 35.3434C39.9966 36.1564 39.5302 36.9092 39.0904 37.604C38.7271 38.2006 38.3587 38.7753 37.9841 39.3247C37.6085 39.876 37.3176 40.2458 37.1102 40.4378C37.0584 40.485 37.0066 40.5217 36.9553 40.545C36.9029 40.5689 36.8639 40.5942 36.8388 40.6175L36.7608 40.6532C36.7085 40.6771 36.6448 40.689 36.5668 40.689C36.4632 40.689 36.3985 40.6532 36.3729 40.5808C36.3472 40.557 36.3339 40.5217 36.3339 40.4731C36.3082 40.1391 36.2297 39.876 36.1009 39.684C35.9716 39.4934 35.8156 39.3505 35.635 39.2542C35.4277 39.1584 35.208 39.0989 34.9751 39.074C34.3018 39.074 33.7589 39.2185 33.3443 39.5053C32.9307 39.7922 32.6064 40.1321 32.374 40.5267C32.1405 40.9217 31.9799 41.3292 31.8886 41.7476C31.7977 42.1654 31.7526 42.4945 31.7526 42.7337C31.7526 43.165 31.8367 43.5054 32.0045 43.7565C32.1734 44.0067 32.3612 44.1933 32.5674 44.3114C32.8009 44.4548 33.0729 44.5392 33.3838 44.5625C33.9016 44.5625 34.3675 44.4548 34.7811 44.2409C35.1947 44.025 35.5442 43.7868 35.8289 43.5238C36.165 43.2359 36.476 42.8885 36.7608 42.4821C37.3566 41.6701 37.8995 40.8805 38.3921 40.1138C38.8313 39.4686 39.2582 38.8175 39.6734 38.1599C40.087 37.5028 40.3974 36.9817 40.6042 36.5991C40.6042 36.5752 40.6175 36.5638 40.6432 36.5638C40.6689 36.5871 40.6822 36.611 40.6822 36.6348L41.2256 43.0558C41.3041 43.3198 41.4062 43.558 41.5361 43.7734C41.6654 43.966 41.8332 44.1273 42.0415 44.2578C42.2483 44.3893 42.5069 44.4548 42.8179 44.4548C43.9565 44.4548 45.2573 43.6424 46.7198 42.0155C47.4761 41.1753 48.2587 40.1515 49.0669 38.9525C49.0448 39.2626 49.0294 39.5679 49.0294 39.8626C49.0294 40.485 49.0946 41.0781 49.2234 41.6399C49.3537 42.2007 49.5733 42.6979 49.8838 43.1282C50.1947 43.558 50.6273 43.9049 51.1851 44.168C51.7413 44.4315 52.4469 44.5625 53.3008 44.5625C54.7499 44.5625 56.0512 44.2459 57.2027 43.6121C58.3541 42.9793 59.364 42.1654 60.2312 41.1724C61.0984 40.1813 61.8296 39.086 62.4248 37.8904C63.0206 36.6953 63.506 35.5226 63.8811 34.3747C64.2557 33.2268 64.5277 32.1861 64.696 31.2545C64.8638 30.3205 64.9485 29.6277 64.9485 29.1726Z" fill="#3C3C3C"/>
<path fill-rule="evenodd" clip-rule="evenodd" d="M129.714 38.2963C129.358 39.2309 129.01 39.955 128.667 40.4715C128.323 40.9876 128.019 41.3807 127.753 41.6509C127.485 41.9207 127.25 42.0874 127.047 42.1481C126.844 42.2103 126.691 42.2399 126.59 42.2399C126.311 42.2399 126.171 41.9457 126.171 41.3562C126.171 40.7673 126.298 39.9606 126.552 38.9423C126.805 37.922 127.143 36.8099 127.563 35.6065C127.981 34.4026 128.45 33.1794 128.971 31.9388C129.491 30.6977 130.025 29.5743 130.571 28.5663C131.117 27.5587 131.651 26.7357 132.171 26.0968C132.692 25.4574 133.142 25.1382 133.522 25.1382C133.676 25.1382 133.815 25.1749 133.942 25.2483C134.044 25.2983 134.139 25.3901 134.229 25.5247C134.317 25.6603 134.362 25.8255 134.362 26.0223C134.362 26.1947 134.298 26.4654 134.172 26.8336L129.714 38.2963ZM139.962 33.3573C139.936 33.3084 139.91 33.2599 139.886 33.21L139.771 33.1003C139.365 33.9106 138.971 34.6357 138.591 35.2746C138.209 35.913 137.867 36.4545 137.562 36.8961C137.205 37.4126 136.863 37.8542 136.534 38.2228C136.101 38.8867 135.706 39.2921 135.352 39.439C134.995 39.5863 134.755 39.6608 134.629 39.6608C134.4 39.6608 134.229 39.5863 134.114 39.439C134 39.2921 133.942 39.1448 133.942 38.9959C133.942 38.8261 133.954 38.7027 133.981 38.6282C134.005 38.5553 134.032 38.5058 134.056 38.4814L139.733 23.9225C139.733 23.8481 139.695 23.8109 139.619 23.8109C139.365 23.8359 139.06 23.8659 138.705 23.9032C138.349 23.9399 137.968 24.0138 137.562 24.1245C137.155 24.2351 136.743 24.4013 136.323 24.6221C135.904 24.8419 135.505 25.1382 135.123 25.5063L135.085 25.5435L135.047 25.5802C134.995 25.5802 134.958 25.5435 134.934 25.4696C134.882 25.2483 134.767 25.0398 134.591 24.8419C134.438 24.6716 134.222 24.5171 133.942 24.382C133.663 24.2479 133.307 24.1806 132.875 24.1806C132.012 24.1806 131.143 24.4253 130.266 24.9174C129.389 25.4089 128.539 26.0779 127.715 26.9259C126.889 27.7744 126.113 28.7503 125.391 29.8558C124.666 30.9618 124.038 32.1295 123.505 33.3573C122.971 34.5867 122.546 35.8401 122.229 37.1169C122.169 37.3555 122.121 37.5916 122.073 37.8272C121.896 38.0842 121.721 38.2978 121.551 38.4625C121.311 38.696 121.094 38.8745 120.904 38.9959C120.713 39.1203 120.541 39.1998 120.391 39.2365C120.238 39.2733 120.122 39.2921 120.047 39.2921C119.819 39.2921 119.659 39.2243 119.571 39.0892C119.482 38.954 119.438 38.8133 119.438 38.6654C119.438 38.592 119.45 38.4936 119.475 38.3702C119.501 38.2478 119.571 38.0515 119.685 37.7797C119.8 37.51 119.952 37.1169 120.141 36.6019C120.332 36.0858 120.605 35.398 120.961 34.5372C121.165 34.0467 121.33 33.597 121.456 33.1916C121.584 32.7857 121.647 32.3758 121.647 31.9576C121.647 31.4911 121.57 31.1224 121.418 30.8511C121.266 30.5819 121.075 30.3841 120.847 30.2622C120.618 30.1393 120.371 30.0588 120.104 30.022C119.837 29.9858 119.602 29.967 119.4 29.967C119.019 29.967 118.631 30.0037 118.237 30.0771C117.843 30.151 117.495 30.225 117.19 30.2984C116.834 30.3973 116.49 30.507 116.161 30.6309H116.123C116.098 30.6309 116.085 30.5931 116.085 30.5202C116.11 30.4697 116.307 30.2489 116.676 29.8558C117.044 29.4627 117.488 29.0394 118.008 28.5846C118.529 28.1303 119.088 27.7183 119.685 27.3501C120.282 26.981 120.833 26.7969 121.343 26.7969C121.57 26.7969 121.792 26.8576 122.008 26.981C122.224 27.1049 122.359 27.3501 122.409 27.7183V27.7917C122.409 27.8417 122.434 27.8656 122.485 27.8656C122.46 27.8656 122.498 27.8417 122.599 27.7917C122.98 27.5215 123.309 27.2272 123.59 26.9075C123.843 26.6373 124.072 26.3242 124.275 25.9678C124.479 25.6114 124.581 25.2248 124.581 24.8062C124.581 24.4131 124.491 24.1556 124.313 24.0322C124.136 23.9103 123.932 23.8486 123.705 23.8486C123.247 23.8486 122.733 23.996 122.161 24.2902C121.589 24.5844 121.012 24.948 120.428 25.3778C119.843 25.8077 119.266 26.2875 118.693 26.8147C118.124 27.3435 117.609 27.8417 117.152 28.3088C116.695 28.7748 116.301 29.1873 115.97 29.5427C115.64 29.8991 115.424 30.1143 115.323 30.1878L115.208 30.2984C115.158 30.2984 115.133 30.2622 115.133 30.1878L120.77 15.8864C120.77 15.8375 120.732 15.8125 120.655 15.8125C120.351 15.8375 119.945 15.8803 119.438 15.9415C118.929 16.0027 118.402 16.1444 117.856 16.3657C117.31 16.5865 116.783 16.9129 116.276 17.3417C115.767 17.7726 115.374 18.3559 115.095 19.0937L108.978 34.6331C108.927 34.728 108.878 34.833 108.827 34.9248C108.503 35.502 108.205 35.9997 107.931 36.4168C107.608 36.9083 107.285 37.3621 106.962 37.7813C106.39 38.5675 105.924 39.0647 105.563 39.2733C105.203 39.4823 104.923 39.5863 104.725 39.5863C104.501 39.5863 104.339 39.5134 104.24 39.3666C104.14 39.2187 104.091 39.0581 104.091 38.8867C104.091 38.7639 104.115 38.6043 104.166 38.4079C104.19 38.3095 104.215 38.2351 104.24 38.1866L109.722 23.738C109.722 23.6885 109.683 23.6645 109.609 23.6645C109.311 23.6885 108.913 23.7318 108.417 23.7925C107.918 23.8542 107.41 23.996 106.887 24.2168C106.366 24.4381 105.862 24.7639 105.377 25.1937C104.892 25.6236 104.501 26.2074 104.203 26.9448L101.331 34.3532C101.108 34.9426 100.847 35.5316 100.549 36.1225C100.25 36.7115 99.9204 37.2408 99.5604 37.7068C99.1999 38.1744 98.8017 38.5553 98.3667 38.85C97.9312 39.1448 97.466 39.2921 96.9685 39.2921C96.7943 39.2921 96.7077 39.158 96.7077 38.8867C96.7077 38.6405 96.7686 38.3702 96.8935 38.076L102.339 23.738C102.339 23.6885 102.301 23.6645 102.226 23.6645C101.928 23.6885 101.53 23.7318 101.033 23.7925C100.535 23.8542 100.02 23.996 99.4859 24.2168C98.9507 24.4381 98.4346 24.7639 97.9382 25.1937C97.4413 25.6236 97.0561 26.2074 96.7817 26.9448L91.3754 41.0982C91.0774 41.9084 90.9278 42.5479 90.9278 43.0139C90.9278 43.3841 90.9908 43.6666 91.1136 43.8629C91.2385 44.0597 91.388 44.2122 91.5622 44.3234C91.7359 44.434 91.9101 44.5013 92.0843 44.5258C92.258 44.5503 92.396 44.5625 92.4941 44.5625C93.1149 44.538 93.7735 44.2989 94.4708 43.8435C95.1661 43.3897 95.8246 42.8615 96.4464 42.2587C97.0677 41.6576 97.6276 41.0493 98.125 40.4348C98.6214 39.8214 98.994 39.3543 99.2432 39.0336C99.2931 38.9607 99.3681 38.8679 99.4673 38.7567C99.5654 38.6471 99.6415 38.592 99.6913 38.592C99.715 38.592 99.7276 38.616 99.7276 38.6654C99.7276 38.6904 99.722 38.7098 99.7099 38.7205C99.6974 38.7338 99.6913 38.7516 99.6913 38.7756V38.8133C99.4673 39.3543 99.2674 39.8566 99.0937 40.3242C98.9452 40.7413 98.8082 41.1726 98.6844 41.6142C98.5595 42.0563 98.4976 42.425 98.4976 42.7207C98.4976 43.1383 98.6028 43.5305 98.8143 43.9006C99.0257 44.2678 99.4532 44.4529 100.101 44.4529C100.747 44.4529 101.487 44.2015 102.319 43.6962C103.153 43.1934 104.004 42.5045 104.874 41.6321C105.735 40.7693 106.584 39.7531 107.421 38.59L105.113 44.4529V44.4896C105.113 44.538 105.151 44.5625 105.228 44.5625H105.418C105.673 44.5625 106.041 44.5258 106.522 44.4529C107.005 44.3789 107.513 44.2316 108.047 44.0098C108.581 43.788 109.1 43.4642 109.609 43.0333C110.117 42.6034 110.51 42.0196 110.789 41.2833L113.495 34.4266C113.875 33.7632 114.23 33.236 114.56 32.8423C114.891 32.4487 115.259 32.0928 115.666 31.7736C116.071 31.4538 116.49 31.2942 116.923 31.2942C117.051 31.2942 117.163 31.3254 117.266 31.3855C117.367 31.4477 117.418 31.588 117.418 31.8098C117.418 32.0316 117.342 32.3375 117.19 32.7317C116.404 34.6968 115.781 36.2765 115.323 37.4667C114.867 38.6593 114.516 39.5986 114.275 40.2875C114.033 40.9753 113.882 41.4796 113.819 41.7983C113.754 42.1185 113.723 42.3883 113.723 42.6101C113.723 43.0032 113.824 43.3464 114.028 43.6421C114.23 43.9358 114.662 44.1082 115.323 44.1571C115.881 44.1571 116.522 43.9909 117.247 43.66C117.971 43.329 118.757 42.7814 119.609 42.0196C120.31 41.3919 121.045 40.5944 121.808 39.647C121.775 40.0366 121.753 40.4231 121.753 40.8025C121.753 41.9819 121.963 42.9048 122.38 43.5682C122.8 44.2316 123.517 44.5625 124.533 44.5625C124.634 44.5625 124.843 44.538 125.162 44.4896C125.479 44.4406 125.867 44.2917 126.325 44.046C126.781 43.8017 127.27 43.4275 127.791 42.9221C128.311 42.4199 128.812 41.7131 129.295 40.8025C129.321 40.8025 129.345 40.7917 129.371 40.7673L129.448 40.6928L129.409 40.8402C129.332 41.06 129.257 41.2833 129.181 41.5036C129.13 41.7009 129.079 41.9141 129.029 42.1481C128.977 42.3821 128.952 42.6223 128.952 42.8681C128.952 43.2857 129.067 43.6544 129.295 43.9736C129.524 44.2917 129.892 44.4513 130.399 44.4513C131.035 44.4513 131.746 44.2015 132.533 43.6962C133.321 43.1934 134.126 42.5112 134.952 41.6509C135.777 40.7917 136.597 39.7786 137.409 38.6094C138.222 37.4437 138.971 36.195 139.657 34.8692C139.809 34.574 139.905 34.3226 139.943 34.113C139.981 33.9045 140 33.7387 140 33.6159C140 33.4935 139.986 33.4073 139.962 33.3573Z" fill="#3C3C3C"/>
<mask id="mask0_506_2545" style="mask-type:luminance" maskUnits="userSpaceOnUse" x="0" y="0" width="55" height="68">
<path d="M0 0.164795H54.801V67.8103H0V0.164795Z" fill="#EBB835"/>
</mask>
<g mask="url(#mask0_506_2545)">
<path fill-rule="evenodd" clip-rule="evenodd" d="M21.8115 20.5745L16.5291 15.4545C16.5388 15.5946 16.5423 15.7396 16.5576 15.8743C15.4541 15.754 14.1632 15.8198 12.69 16.1242C10.7536 16.5247 8.34143 17.5077 6.35785 17.3493C5.8221 17.3077 5.43208 17.2839 4.77546 17.077L4.79933 17.0899C4.90598 17.181 4.99434 17.2636 5.07965 17.3458L13.6061 21.9881L13.9473 21.9292C14.155 21.9638 14.3455 21.9797 14.5684 21.997C16.0482 22.1148 17.8495 21.3813 19.2963 21.0818C20.088 20.9185 21.4571 20.8561 21.4571 20.8561L21.8197 20.8665L21.8115 20.5745ZM23.0126 13.987C22.9831 13.6494 22.9592 13.3871 22.8414 13.0104L22.8531 12.9272L17.9003 4.77714C17.8799 4.75586 17.8612 4.74051 17.8408 4.71725L17.8266 4.69498C18.0445 5.31863 18.0689 5.68837 18.1141 6.19769C18.2806 8.07906 17.2431 10.3673 16.8211 12.2046C16.5423 13.4227 16.4636 14.5017 16.5291 15.4545L21.8115 20.5745L22.1533 18.0655C22.5057 16.7717 23.1238 15.2551 23.0126 13.987ZM14.5633 37.2939C13.503 36.3481 12.368 34.9503 11.074 34.3717C10.7109 34.2083 10.4494 34.0866 9.94718 33.9876H0.00340983C0.67882 34.1202 1.02922 34.284 1.5142 34.5008C3.31597 35.3057 4.88617 37.3004 6.35176 38.5675C7.22725 39.3213 8.08142 39.8905 8.90105 40.3063L16.3204 38.5531L14.5633 37.2939ZM16.5753 28.8939C16.5753 28.8939 16.5449 28.8369 16.5027 28.7568L9.14938 26.7482C9.28903 26.9635 9.43224 27.1709 9.58053 27.3605C8.56335 27.7812 7.48168 28.4484 6.36903 29.4096C4.9014 30.6748 3.33171 32.671 1.52994 33.4748C1.0475 33.6911 0.696594 33.8539 0.0272777 33.9871H-0.000144958C0.00137852 33.9871 0.00239418 33.9876 0.00340983 33.9876H9.94718L9.9487 33.9871H9.96394C10.4636 33.8871 10.7257 33.7668 11.0852 33.604C12.4305 33.0041 13.6025 31.5142 14.6974 30.5688C15.2961 30.0531 16.4464 29.3507 16.4464 29.3507L16.7648 29.1859L16.5753 28.8939ZM15.5714 26.5799C15.1991 25.2974 14.9356 23.7066 14.1738 22.6657C13.993 22.4192 13.8483 22.2207 13.6061 21.9881L5.07965 17.3458C5.39806 17.6547 5.59002 17.9175 5.83022 18.2457C6.96674 19.7969 7.27397 22.2712 7.87829 24.062C8.23275 25.1178 8.66644 26.0052 9.14938 26.7482L16.5027 28.7568L15.5714 26.5799ZM28.7901 8.99821C28.7485 9.08087 28.6972 9.16749 28.6586 9.25015C27.7679 8.6255 26.6192 8.07312 25.1886 7.63953C23.3005 7.06586 20.6933 6.77433 19.0591 5.69629C18.6407 5.42159 18.3228 5.2137 17.9003 4.77714L22.8531 12.9272C23.169 13.2524 23.4056 13.4079 23.7174 13.6128C24.9393 14.4181 26.8853 14.6349 28.295 15.063C29.0633 15.2962 30.2765 15.8886 30.2765 15.8886L30.5853 16.0678L30.6833 15.8951L28.7901 8.99821ZM54.7416 15.8807C54.8676 14.8329 54.7995 13.6049 54.4781 12.2046C54.0566 10.3673 53.0206 8.08005 53.1856 6.19769C53.2308 5.68936 53.2562 5.31863 53.4741 4.69498L53.4594 4.71873C53.4558 4.72269 53.4528 4.72517 53.4487 4.72913L48.4832 12.8911L48.4862 12.9159C48.3415 13.3495 48.3196 13.6207 48.2871 13.987C48.1632 15.3917 48.9377 17.0993 49.252 18.4733C49.4247 19.2267 49.4892 20.526 49.4892 20.526L49.4795 20.87L49.7507 20.865C49.7507 20.865 54.8655 15.8678 54.7416 15.8807ZM42.6355 9.25361C42.1927 8.28942 41.4883 7.26286 40.4762 6.2071C39.1422 4.81525 37.0387 3.32441 36.1907 1.61579C35.9627 1.15795 35.791 0.82533 35.6519 0.190784V0.164551C35.6509 0.167521 35.6504 0.169005 35.6498 0.17247V9.60504L35.6509 9.60751V9.61692C35.7555 10.0921 35.8834 10.3396 36.0541 10.6831C36.6873 11.9591 38.2575 13.0703 39.2534 14.1087C39.7973 14.676 40.5372 15.7674 40.5372 15.7674L40.7103 16.0708L40.82 16.0064L42.7904 9.15511C42.7411 9.18927 42.6833 9.21995 42.6355 9.25361ZM35.1095 1.60243C34.2609 3.31056 32.158 4.79941 30.8245 6.19175C29.8946 7.15991 29.237 8.10232 28.7901 8.99821L30.6833 15.8951L32.3007 13.8479C33.292 12.8802 34.6636 11.8453 35.2471 10.6702C35.4168 10.3282 35.5447 10.0797 35.6498 9.60504V0.17247C35.5102 0.810481 35.338 1.14161 35.1095 1.60243ZM52.2411 5.69629C50.6069 6.77532 47.9992 7.06685 46.1106 7.63953C44.7552 8.04986 43.6613 8.57155 42.7904 9.15511L40.82 16.0064L43.4252 14.9482C44.7831 14.5903 46.4777 14.3409 47.5828 13.6128C47.9063 13.4014 48.1475 13.245 48.4832 12.8911L53.4487 4.72913C52.9988 5.2038 52.6758 5.4107 52.2411 5.69629ZM27.874 53.0368C26.515 53.3947 24.8174 53.6441 23.7118 54.3732C23.3853 54.5866 23.1446 54.7405 22.8084 55.0959L17.8398 63.2638C18.2908 62.7862 18.6143 62.5793 19.0505 62.2912C20.6852 61.2137 23.2924 60.9216 25.1805 60.3509C26.5384 59.9391 27.6343 59.4174 28.5057 58.8324L30.4761 51.9786L27.874 53.0368ZM54.7645 52.5151L49.4826 47.3947L49.1515 49.8596C48.8016 51.1614 48.1688 52.6958 48.2821 53.9797C48.312 54.3247 48.3354 54.5935 48.4633 54.991L48.4542 55.0588L53.406 63.2089C53.4299 63.2346 53.4512 63.2524 53.4761 63.2782L53.4619 63.2559C53.2481 62.6392 53.2222 62.2709 53.1795 61.7656C53.012 59.8822 54.0489 57.595 54.4709 55.7586C54.7492 54.5415 54.8279 53.4645 54.7645 52.5151ZM48.4542 55.0588C48.1383 54.7326 47.9012 54.5791 47.5884 54.3732C46.3675 53.5679 44.4205 53.3487 43.0108 52.9215C42.2369 52.6879 41.0176 52.0895 41.0176 52.0895L40.7083 51.9103L40.6144 52.0726L42.5075 58.9665C42.5472 58.8883 42.5964 58.8062 42.6325 58.7279C43.5268 59.3556 44.6805 59.9134 46.1197 60.349C48.0078 60.9216 50.615 61.2137 52.2492 62.2912C52.6671 62.5669 52.984 62.7738 53.406 63.2089L48.4542 55.0588ZM18.7519 46.7656C17.4143 46.4271 15.8679 45.8747 14.5684 45.9786C14.2348 46.0048 13.9712 46.0256 13.6101 46.1202L13.4796 46.1048L4.90394 50.7902C4.86738 50.8233 4.83945 50.8501 4.79933 50.8862L4.77597 50.8991C5.43259 50.6917 5.8221 50.6684 6.35785 50.6249C8.34194 50.4675 10.7536 51.451 12.691 51.8529C13.9941 52.1216 15.1463 52.1934 16.161 52.1266L21.5429 47.117L18.7519 46.7656ZM22.0533 49.4929C21.8816 48.7455 21.8161 47.4511 21.8161 47.4511L21.8248 47.1086L21.5429 47.117L16.161 52.1266C16.2945 52.1177 16.4357 52.1147 16.5642 52.1004C16.4413 53.1457 16.5103 54.3653 16.8293 55.7586C17.2513 57.5969 18.2882 59.8842 18.1212 61.7656C18.078 62.2709 18.0511 62.6411 17.8373 63.2569L17.8231 63.2792C17.8292 63.2727 17.8337 63.2688 17.8398 63.2638L22.8084 55.0959L22.8069 55.0895C22.9653 54.6316 22.9846 54.3564 23.0181 53.9797C23.1421 52.575 22.3676 50.8664 22.0533 49.4929ZM16.4423 38.6289C16.4423 38.6289 16.3915 38.5977 16.3204 38.5531L8.90105 40.3063C9.12907 40.4206 9.35403 40.529 9.57646 40.6206C8.91832 41.466 8.33584 42.5554 7.8788 43.9126C7.27499 45.7044 6.96775 48.1777 5.83124 49.7295C5.55041 50.1136 5.33357 50.4086 4.90394 50.7902L13.4796 46.1048C13.8026 45.8172 13.9641 45.5955 14.1738 45.3099C15.0229 44.1512 15.2524 42.3035 15.7029 40.9661C15.9492 40.237 16.5733 39.0852 16.5733 39.0852L16.7617 38.7942L16.4423 38.6289ZM40.6144 52.0726L39.0127 54.1045C38.0199 55.0761 36.6386 56.1135 36.0541 57.2935C35.8834 57.6365 35.7555 57.884 35.6509 58.3587V58.3681L35.6498 58.3701V67.8027C35.6504 67.8066 35.6509 67.8086 35.6519 67.8106V67.7843C35.791 67.1503 35.9627 66.8177 36.1907 66.3603C37.0387 64.6512 39.1422 63.1604 40.4762 61.7685C41.404 60.8009 42.0612 59.8599 42.5075 58.9665L40.6144 52.0726ZM35.6498 58.3701V67.8027C35.5102 67.1646 35.338 66.834 35.1095 66.3747C34.2609 64.6656 32.158 63.1757 30.8245 61.7839C29.8098 60.7261 29.1055 59.6976 28.6621 58.7309C28.6139 58.7666 28.556 58.7967 28.5057 58.8324L30.4761 51.9786L30.5878 51.9128L30.76 52.2142C30.76 52.2142 31.5009 53.3081 32.0463 53.8778C33.0421 54.9162 34.6129 56.0279 35.2471 57.3059C35.4168 57.6479 35.5447 57.8954 35.6498 58.3701Z" fill="#EBB836"/>
</g>
</svg>
