<svg id="soc-wa" viewBox="0 0 15 15" xmlns="http://www.w3.org/2000/svg">
	<path fill-rule="evenodd" clip-rule="evenodd" d="M7.39549 14.6763H7.39254C6.1983 14.6759 5.02485 14.3762 3.98263 13.8078L0.199951 14.8L1.21226 11.1024C0.587818 10.0203 0.259241 8.79277 0.259776 7.53515C0.261342 3.60087 3.46236 0.400024 7.39542 0.400024C9.30427 0.400848 11.0959 1.14396 12.4431 2.49273C13.7903 3.84143 14.5318 5.63419 14.531 7.54078C14.5294 11.4742 11.3297 14.6747 7.39549 14.6763ZM4.37445 12.6445L4.15789 12.516L1.91319 13.1048L2.51234 10.9162L2.37132 10.6918C1.77764 9.74758 1.46408 8.65621 1.46454 7.53556C1.46584 4.26558 4.12641 1.60524 7.39782 1.60524C8.98194 1.60579 10.471 2.22347 11.5908 3.34452C12.7105 4.46557 13.3268 5.95563 13.3262 7.54036C13.3249 10.8106 10.6644 13.4712 7.39549 13.4712H7.39309C6.32885 13.4708 5.28504 13.1849 4.37445 12.6445ZM10.7462 9.07705C10.8705 9.13715 10.9545 9.17774 10.9903 9.23759C11.0349 9.31193 11.0349 9.66891 10.8864 10.0855C10.7378 10.5019 10.0255 10.882 9.6829 10.9332C9.37574 10.9791 8.98702 10.9983 8.55993 10.8625C8.30096 10.7804 7.96889 10.6707 7.54351 10.487C5.87203 9.76523 4.74246 8.14522 4.52898 7.83904C4.51402 7.81759 4.50356 7.80259 4.49773 7.7948L4.49629 7.79288C4.40193 7.66698 3.76971 6.82344 3.76971 5.95041C3.76971 5.12914 4.17313 4.69868 4.35882 4.50053C4.37155 4.48696 4.38325 4.47447 4.39372 4.46303C4.55715 4.28453 4.75032 4.2399 4.86917 4.2399C4.98802 4.2399 5.10701 4.241 5.21089 4.24622C5.22371 4.24686 5.23704 4.24678 5.25082 4.2467C5.35472 4.24609 5.48426 4.24533 5.61204 4.55228C5.66106 4.67005 5.7327 4.84447 5.80832 5.02856L5.80855 5.02912L5.80913 5.03055C5.96252 5.40397 6.13194 5.81643 6.16175 5.87613C6.20634 5.96538 6.23604 6.06946 6.17662 6.1885C6.1677 6.20635 6.15944 6.22319 6.15156 6.23929C6.10692 6.33042 6.07409 6.39745 5.99833 6.48591C5.96855 6.52068 5.93774 6.55821 5.90696 6.59568C5.84562 6.67039 5.78429 6.74508 5.73088 6.79829C5.64162 6.88719 5.54871 6.98365 5.65271 7.16215C5.75672 7.34065 6.11454 7.92448 6.64457 8.39727C7.21434 8.90547 7.70953 9.12027 7.96054 9.22915C8.00956 9.25041 8.04926 9.26763 8.07839 9.28221C8.25661 9.37148 8.36063 9.35655 8.46463 9.23759C8.56865 9.1186 8.91034 8.71695 9.02918 8.53849C9.14802 8.36006 9.26692 8.38978 9.43032 8.44925C9.59378 8.50881 10.4704 8.94009 10.6487 9.02932C10.6835 9.04675 10.716 9.06248 10.7462 9.07705Z"/>
</svg>
